{"title":"The.Human.Contract.2008.SWESUB.DVDRip.XviD.-Zen_Bud","uid":5691129,"size":928305906,"categoryP":"video","categoryS":"movies","magnet":"?xt=urn:btih:88e6719ca3152289e78c2d79e8eba817ef9700ba&amp;dn=The.Human.Contract.2008.SWESUB.DVDRip.XviD.-Zen_Bud&amp;tr=udp%3A%2F%2Ftracker.openbittorrent.com%3A80&amp;tr=udp%3A%2F%2Fopen.demonii.com%3A1337&amp;tr=udp%3A%2F%2Ftracker.coppersurfer.tk%3A6969&amp;tr=udp%3A%2F%2Fexodus.desync.com%3A6969","seeders":1,"leechers":0,"uploader":"Zen_Bud","files":1,"time":1279095064,"description":"General\nComplete name                    : The Human Contract.avi\nFormat                           : AVI\nFile size                        : 885 MiB\nDuration                         : 1h 43mn\nOverall bit rate                 : 1 201 Kbps\n\nVideo\n\nFormat                           : MPEG-4 Visual\nCodec                            : XviD\nDuration                         : 1h 43mn\nBit rate                         : 1 060 Kbps\nWidth                            : 720 pixels\nHeight                           : 574 pixels\nDisplay aspect ratio             : 16:9\nStream size                      : 781 MiB (88%)\nWriting library                  : XviD 1.1.2 (UTC 2006-11-01)\n\nAudio\n\nFormat                           : MPEG Audio\nCodec ID/Hint                    : MP3\nDuration                         : 1h 43mn\nBit rate                         : 128 Kbps\nChannel(s)                       : 2 channels\nSampling rate                    : 48.0 KHz\nStream size                      : 94.4 MiB (11%)\n","torrent":{"xt":"urn:btih:88e6719ca3152289e78c2d79e8eba817ef9700ba","amp;dn":"The.Human.Contract.2008.SWESUB.DVDRip.XviD.-Zen_Bud","amp;tr":["udp%3A%2F%2Ftracker.openbittorrent.com%3A80","udp%3A%2F%2Fopen.demonii.com%3A1337","udp%3A%2F%2Ftracker.coppersurfer.tk%3A6969","udp%3A%2F%2Fexodus.desync.com%3A6969"],"infoHash":"88e6719ca3152289e78c2d79e8eba817ef9700ba","infoHashBuffer":{"type":"Buffer","data":[136,230,113,156,163,21,34,137,231,140,45,121,232,235,168,23,239,151,0,186]},"announce":[],"urlList":[]}}